<svg version="1.1" id="Layer_1" xmlns="http://www.w3.org/2000/svg" xmlns:xlink="http://www.w3.org/1999/xlink" x="0px" y="0px"
	 width="100%" viewBox="0 0 192 192" enable-background="new 0 0 192 192" xml:space="preserve">
<path fill="#FDFEFE" opacity="1.000000" stroke="none" 
	d="
M1.000000,192.000000 
	C1.000000,128.979111 1.000000,65.958206 1.220778,2.362715 
	C1.714883,1.587192 1.901031,1.324487 2.000000,1.000000 
	C65.020897,1.000000 128.041794,1.000000 191.638306,1.220292 
	C192.411316,1.717865 192.673340,1.904337 193.000000,2.000000 
	C193.000000,65.020897 193.000000,128.041794 192.779160,191.637177 
	C192.285080,192.412735 192.098969,192.675507 192.000000,193.000000 
	C128.979111,193.000000 65.958206,193.000000 2.361625,192.779755 
	C1.588534,192.282333 1.326556,192.095825 1.000000,192.000000 
M151.894501,39.755955 
	C151.616913,39.687969 151.339325,39.619984 150.636002,39.551918 
	C150.636002,39.551918 150.212143,39.591766 150.112885,39.222118 
	C150.112885,39.222118 150.051575,38.844311 149.940399,38.090393 
	C149.340469,34.667809 147.293976,33.841953 143.935135,33.931496 
	C134.660278,34.178745 125.374451,34.029915 116.093063,34.002281 
	C114.591866,33.997810 113.091209,33.812119 111.590294,33.710194 
	C111.591484,33.232944 111.592674,32.755695 111.593864,32.278442 
	C113.096832,32.179382 114.599396,32.002842 116.102837,31.994976 
	C121.903572,31.964613 127.706779,32.076458 133.504059,31.933203 
	C135.071091,31.894482 136.620529,31.143873 138.178040,30.720018 
	C137.722290,30.201984 137.266556,29.683950 136.842926,29.155554 
	C136.842926,29.155554 136.839081,29.133169 136.944397,28.369146 
	C134.122253,23.703392 129.587112,23.045309 124.030258,23.122065 
	C123.344101,23.002569 122.657944,22.883072 121.371056,22.272991 
	C118.407188,21.635565 115.460960,20.698389 112.469948,20.522482 
	C111.415924,20.460493 110.252327,22.261480 109.072151,23.821236 
	C108.969963,24.216314 108.867775,24.611393 108.194946,25.383907 
	C106.810799,27.229448 105.778915,29.006365 109.058929,29.960482 
	C109.058929,29.960482 109.073364,29.922497 109.017815,30.698408 
	C108.053749,32.412056 107.089691,34.125706 105.773643,36.465023 
	C106.536049,37.610062 107.678223,39.325455 108.992142,40.965012 
	C108.992142,40.965012 109.172211,40.911907 108.986397,41.545506 
	C109.022194,41.983486 109.057983,42.421471 109.039665,43.735184 
	C109.031250,45.487503 109.022842,47.239822 108.909470,49.493320 
	C108.844490,49.651150 108.779518,49.808979 108.010857,50.158054 
	C106.625816,52.426865 105.635483,54.613468 109.058701,55.920082 
	C109.058701,55.920082 109.158195,55.802578 109.045120,56.525372 
	C109.033455,57.010506 109.021782,57.495640 109.003555,58.653564 
	C109.003189,59.102116 109.002815,59.550663 109.071381,60.693256 
	C109.119171,60.920776 109.166962,61.148300 109.096291,61.921040 
	C108.971169,62.271088 108.846046,62.621136 108.089554,63.132145 
	C108.298065,64.432922 108.506577,65.733704 108.919090,67.547318 
	C109.012787,67.902695 109.106476,68.258064 109.069260,69.491356 
	C108.956299,72.981262 108.843338,76.471169 108.910530,80.473877 
	C108.944077,80.651917 108.977631,80.829956 108.987328,81.889862 
	C109.036087,83.660172 109.084846,85.430489 109.061905,87.796715 
	C108.981331,88.187561 108.900757,88.578407 108.131340,89.144096 
	C106.480919,91.128281 106.026695,92.874626 109.000824,94.000412 
	C109.000824,94.000412 109.076721,93.919464 109.176620,94.731598 
	C110.168533,95.141891 111.159187,95.906624 112.152542,95.910149 
	C131.961044,95.980331 151.770020,95.994080 171.578125,95.881645 
	C172.722290,95.875153 173.859802,94.698181 175.002533,93.997208 
	C175.002533,93.997208 175.071121,94.002296 175.818680,93.865524 
	C177.096924,91.393700 178.711517,88.874939 174.882004,87.035126 
	C174.882004,87.035126 174.914322,87.106651 174.920975,86.417488 
	C174.981476,85.046051 175.157257,83.664726 175.040909,82.308456 
	C174.999329,81.823776 174.250961,81.399734 173.789734,80.314705 
	C173.801773,79.893089 173.813828,79.471481 174.428543,78.630753 
	C175.547012,75.955429 174.929794,74.301025 171.180573,74.182266 
	C170.787628,74.107559 170.394684,74.032852 170.008698,73.086548 
	C169.899750,71.623734 169.790802,70.160919 169.945679,68.994614 
	C169.945679,68.994614 169.702805,68.681206 170.370514,68.826782 
	C170.797867,68.478828 171.225235,68.130882 171.652588,67.782936 
	C170.975479,67.234894 170.298386,66.686844 169.277756,65.765572 
	C169.129883,65.283836 168.982010,64.802101 168.953552,63.550610 
	C168.972977,63.034462 168.992386,62.518311 169.705978,61.928169 
	C172.996841,59.182285 176.445465,56.533291 175.934845,51.414696 
	C173.619980,54.285591 171.305099,57.156490 168.193771,60.013699 
	C167.131668,59.990902 166.069565,59.968105 165.002853,59.150730 
	C164.996521,58.091187 164.990189,57.031643 164.985764,55.193726 
	C164.911713,52.990215 164.909622,50.721996 161.655838,51.361950 
	C161.655838,51.361950 161.571777,51.338875 161.788971,50.647282 
	C161.166824,50.121239 160.544678,49.595192 159.993774,48.997395 
	C159.993774,48.997395 159.933838,49.077915 159.829269,48.265617 
	C154.886185,47.843388 149.943100,47.421158 144.782013,46.474968 
	C144.514297,45.974590 144.246567,45.474216 144.525375,44.587833 
	C147.260574,44.583275 150.068619,44.963024 152.709824,44.462479 
	C155.186172,43.993176 155.140106,42.880875 152.914719,41.058739 
	C152.914719,41.058739 152.942856,41.099350 152.775986,40.597328 
	C152.481827,40.421852 152.187653,40.246380 151.996292,40.052326 
	C151.996292,40.052326 151.912491,40.114700 151.894501,39.755955 
M62.420097,168.401062 
	C63.056175,168.488876 63.692257,168.576691 65.038109,168.927368 
	C67.236549,169.623596 69.432861,170.914230 71.633759,170.922089 
	C89.334747,170.985306 107.036598,170.806747 125.508377,170.881042 
	C126.672211,170.252686 127.836044,169.624329 129.000000,169.000000 
	C129.000000,169.000000 128.995285,168.998749 129.748611,169.053909 
	C130.822083,168.355576 131.895569,167.657227 133.002151,166.997025 
	C133.002151,166.997025 132.962585,166.967789 133.718033,167.002136 
	C135.122406,166.142624 136.526794,165.283112 137.931168,164.423615 
	C136.463348,163.196381 135.659271,163.022766 134.854965,163.021759 
	C110.994919,162.991882 87.134842,162.968140 63.274837,162.999207 
	C62.190659,163.000610 61.107159,163.521240 59.346333,163.905075 
	C58.891048,163.937927 58.435760,163.970764 57.702682,163.544266 
	C57.269295,163.731491 56.835903,163.918732 56.402512,164.105942 
	C56.869980,164.393311 57.337444,164.680695 58.299255,165.198105 
	C58.559025,165.450974 58.818790,165.703827 59.253284,166.455490 
	C59.574165,166.539215 59.895046,166.622940 60.201393,166.960342 
	C60.201393,166.960342 60.249123,166.710541 60.381691,167.352295 
	C60.972099,167.489441 61.562508,167.626587 62.058159,168.003098 
	C62.058159,168.003098 62.168354,167.768326 62.420097,168.401062 
M26.159578,132.837341 
	C26.159578,132.837341 26.327053,132.627792 26.692463,132.731949 
	C26.692463,132.731949 27.000481,132.954437 27.100817,133.657257 
	C28.060595,135.092148 29.020372,136.527054 29.471169,138.380371 
	C27.018007,142.134430 29.214561,142.676025 32.367054,142.643738 
	C32.367054,142.643738 32.430832,142.695480 32.219090,143.390350 
	C32.859867,143.906204 33.500648,144.422043 34.563370,145.075897 
	C34.563370,145.075897 34.932384,145.322693 35.209435,146.048264 
	C42.207413,146.689285 49.204777,147.869720 56.203476,147.877670 
	C86.047585,147.911575 115.892265,147.617554 145.735779,147.340073 
	C146.857895,147.329651 147.970093,146.252060 149.827148,145.458649 
	C150.842957,145.524902 151.858780,145.591141 152.942963,146.385956 
	C151.755814,147.264053 150.679672,148.410873 149.355713,148.957733 
	C147.328796,149.794983 145.131073,150.218689 142.153458,150.948898 
	C140.431564,150.906082 138.709671,150.863266 136.353531,150.294128 
	C134.538025,150.191391 132.722565,150.000626 130.906982,149.999207 
	C105.631828,149.979599 80.356567,150.015228 55.081570,149.948410 
	C51.960785,149.940170 48.833897,149.158051 45.724442,149.246719 
	C44.169014,149.291077 42.646542,150.491348 41.135223,151.682068 
	C41.147003,152.024292 41.158783,152.366516 41.107716,153.445496 
	C43.169334,157.997223 46.591949,160.120102 51.690304,160.020020 
	C60.495884,159.847214 69.307304,159.971237 78.116272,159.971542 
	C98.892143,159.972244 119.668015,159.964600 140.443878,159.979614 
	C147.003433,159.984360 152.205093,157.762909 152.867004,152.332031 
	C152.867004,152.332031 153.043808,151.986740 153.734467,151.890366 
	C155.511642,149.690475 157.288818,147.490585 159.413925,145.046066 
	C159.413925,145.046066 159.819443,144.917786 160.553802,144.894104 
	C161.016113,143.906281 161.478424,142.918472 161.990143,142.004379 
	C161.990143,142.004379 161.924774,141.943558 162.716492,141.972382 
	C163.385605,140.650528 164.054718,139.328674 164.723831,138.006821 
	C162.329697,137.266846 159.944412,135.951416 157.539490,135.914505 
	C153.367966,135.850433 149.184280,136.577393 144.984680,136.163651 
	C143.628937,135.109985 142.283310,133.154327 140.915924,133.138992 
	C122.701729,132.934753 104.484406,133.028763 86.268082,132.974609 
	C83.423309,132.966156 81.800674,133.906143 81.096306,136.983795 
	C78.401642,136.983139 75.706985,136.982483 72.970474,136.407379 
	C72.985451,135.330612 73.000427,134.253845 73.555046,132.964615 
	C74.029388,132.643585 74.503731,132.322540 75.645836,131.914856 
	C75.471230,130.936234 75.296616,129.957626 74.981445,128.283264 
	C74.650902,127.200409 74.320358,126.117561 74.006538,124.516159 
	C74.005585,124.343231 74.004639,124.170296 74.001434,123.251511 
	C74.005585,122.506065 74.009727,121.760628 74.008560,120.468796 
	C73.989021,120.287712 73.969475,120.106621 73.989105,119.999939 
	C73.989105,119.999939 73.923637,119.947144 74.631897,119.949585 
	C77.530304,118.851898 78.525146,117.356827 76.384369,114.442657 
	C74.967278,112.513603 74.168045,110.130684 73.080353,107.634590 
	C73.080353,107.634590 73.065186,107.318367 73.574577,107.128647 
	C73.753212,107.098251 73.931839,107.067856 74.848373,106.871185 
	C75.222603,104.914902 75.596832,102.958611 75.979973,100.222107 
	C74.990105,98.467842 74.000244,96.713577 72.690239,94.843529 
	C72.486671,94.737007 72.312149,94.594841 72.799385,94.201668 
	C73.240326,94.136719 73.681267,94.071777 74.821053,93.874954 
	C74.806229,91.899208 74.791405,89.923470 74.355476,87.470055 
	C74.246689,87.287781 74.137909,87.105515 73.950089,86.226120 
	C73.651985,84.661964 73.353874,83.097809 73.594063,81.238068 
	C73.784882,81.163979 73.975708,81.089882 74.828705,80.911636 
	C75.170761,79.921425 75.512825,78.931213 75.946373,77.278984 
	C75.629501,76.501923 75.312630,75.724869 74.740524,74.839157 
	C74.740524,74.839157 74.463135,74.839310 74.137405,74.537781 
	C74.137405,74.537781 73.876305,74.178825 73.915634,73.568359 
	C73.880363,73.367638 73.845085,73.166908 74.410896,72.497070 
	C74.583664,68.678352 74.756424,64.859627 74.947830,60.231300 
	C75.642944,57.794624 76.338066,55.357948 77.185158,52.388535 
	C76.642197,46.126328 71.576706,46.913216 66.688812,46.985214 
	C57.692730,47.117729 48.692913,46.980911 39.695663,47.064774 
	C38.109154,47.079559 36.527565,47.622475 34.506210,48.196243 
	C34.357952,48.497723 34.209694,48.799198 34.017288,49.006191 
	C34.017288,49.006191 34.096889,49.073570 33.388119,49.098804 
	C32.256660,49.970402 30.881788,50.658119 30.051500,51.757225 
	C28.843666,53.356113 27.803879,55.313931 31.603561,55.894753 
	C31.603561,55.894753 32.031769,56.035587 32.607071,56.633083 
	C44.177280,56.739826 55.747433,56.859818 67.317886,56.912560 
	C67.872276,56.915085 68.429375,56.323814 69.656593,55.873844 
	C70.108315,55.921314 70.560036,55.968788 71.214996,56.465046 
	C71.422462,56.738316 71.692375,56.917595 72.024460,57.712746 
	C71.684586,58.826416 71.344711,59.940086 70.340378,61.174946 
	C69.893776,61.134243 69.447182,61.093536 68.428650,60.438549 
	C56.270313,60.330143 44.111980,60.221737 31.088762,60.054943 
	C28.287313,60.314697 24.045658,58.637833 25.205700,64.706871 
	C25.205700,64.706871 24.988184,64.998230 24.505959,65.307831 
	C24.445375,65.668556 24.384790,66.029274 24.317141,66.868454 
	C24.269192,67.183678 24.224438,67.499352 24.076595,68.447662 
	C24.439455,69.969597 24.802317,71.491531 24.655243,73.199898 
	C24.446262,73.483047 24.237280,73.766205 23.327076,74.175934 
	C21.962788,75.673393 20.598501,77.170853 18.923401,79.309448 
	C18.975130,81.905479 19.026859,84.501511 19.003361,87.009361 
	C19.003361,87.009361 19.097183,87.077339 18.399183,87.116211 
	C18.218599,88.443321 18.038015,89.770439 17.909977,91.822220 
	C17.931015,92.550995 17.952055,93.279770 17.989462,94.758957 
	C18.010511,95.509712 18.031559,96.260460 17.450769,97.563545 
	C17.304064,98.699577 17.050114,99.833549 17.028248,100.971977 
	C16.896919,107.809006 16.913933,107.942413 23.717329,107.985542 
	C39.452507,108.085312 55.188587,108.043221 70.942650,108.884666 
	C69.545631,109.592613 68.158592,110.890404 66.749992,110.914246 
	C56.437248,111.088791 46.119438,110.946220 35.805264,111.071526 
	C34.183136,111.091240 32.571320,111.959763 30.331585,112.627098 
	C29.905743,112.567123 29.479902,112.507156 28.869026,111.807297 
	C26.986200,111.526817 25.110165,111.183487 23.219112,110.979126 
	C19.461540,110.573067 17.227673,112.091972 18.114641,116.058327 
	C18.874701,119.457176 20.499790,122.388802 24.998980,121.786659 
	C24.996471,122.520905 24.993965,123.255157 24.500156,123.998940 
	C24.500156,123.998940 24.008745,124.011955 23.402454,123.783119 
	C21.952763,124.022758 20.503069,124.262390 19.053377,124.502022 
	C18.936848,125.081291 18.820318,125.660561 18.703789,126.239830 
	C20.543514,127.087448 22.383240,127.935066 24.212721,128.827484 
	C24.212721,128.827484 24.185369,128.864426 24.062143,129.615326 
	C24.374552,130.744156 24.686960,131.873001 25.169434,133.332596 
	C25.441275,133.235397 25.713114,133.138199 26.159578,132.837341 
M56.574146,29.144054 
	C56.213203,29.497812 55.852261,29.851572 55.491318,30.205328 
	C56.029076,30.049519 56.566830,29.893711 57.822826,29.928707 
	C58.555584,30.051491 59.288342,30.174274 60.659603,30.780252 
	C64.084763,30.869843 67.509926,30.959433 70.996658,31.823969 
	C70.968781,32.858799 70.940903,33.893627 69.992867,34.940845 
	C63.006813,34.917797 56.020763,34.894749 48.889992,34.278694 
	C48.542179,34.018570 48.194370,33.758450 47.846558,33.498325 
	C47.575672,34.357155 47.304787,35.215984 46.784863,36.491497 
	C46.547398,36.721699 46.270229,36.884186 45.497768,37.132050 
	C45.211555,37.316456 45.036095,37.575794 44.713680,38.381756 
	C44.145153,38.786579 43.576630,39.191406 42.577972,39.287525 
	C42.115707,39.625496 41.653446,39.963470 41.147812,40.668716 
	C41.147812,40.668716 41.003891,41.009388 40.368683,41.083321 
	C38.426281,43.436836 40.299500,43.672092 42.930248,44.029758 
	C48.063744,44.019569 53.199776,44.105957 58.330009,43.971390 
	C63.228130,43.842903 68.120216,43.484303 73.504524,43.088524 
	C73.671333,43.058033 73.838150,43.027538 74.800308,42.842907 
	C75.172913,37.897251 75.545525,32.951595 75.962051,27.216322 
	C75.306969,25.818378 74.651886,24.420435 73.994698,23.005106 
	C73.994698,23.005106 73.977119,23.005825 73.943542,22.324537 
	C71.788818,20.187283 68.417274,21.171061 64.663170,25.145805 
	C64.663170,25.145805 64.317337,25.210371 63.459290,25.065199 
	C60.666809,25.331905 56.989151,24.248426 57.194824,29.184122 
	C57.194824,29.184122 57.164791,29.228382 56.574146,29.144054 
M175.007797,100.003395 
	C175.007797,100.003395 175.024307,99.946175 174.846741,99.178795 
	C171.217300,99.042328 167.588943,98.838364 163.958252,98.780891 
	C146.911926,98.511070 129.865234,98.237831 112.817650,98.128166 
	C111.578026,98.120193 110.330093,99.403877 109.000305,100.000000 
	C109.000305,100.000000 109.087242,100.086769 108.393562,100.117004 
	C105.785835,101.982086 107.054520,103.508682 109.097466,105.788261 
	C110.585487,106.205688 112.071884,106.979721 113.561775,106.986496 
	C132.720505,107.073654 151.879791,107.073433 171.038651,107.010437 
	C172.422333,107.005890 173.803864,106.341812 175.703064,105.537521 
	C176.442596,103.571915 178.586304,101.443695 175.007797,100.003395 
z"/>
<path fill="#F8F8F8" opacity="1.000000" stroke="none" 
	d="
M1.000000,192.500000 
	C1.326556,192.095825 1.588534,192.282333 1.892968,192.779755 
	C1.666667,193.000000 1.333333,193.000000 1.000000,192.500000 
z"/>
<path fill="#F8F8F8" opacity="1.000000" stroke="none" 
	d="
M192.500000,193.000000 
	C192.098969,192.675507 192.285080,192.412735 192.779160,192.105835 
	C193.000000,192.333328 193.000000,192.666672 192.500000,193.000000 
z"/>
<path fill="#F8F8F8" opacity="1.000000" stroke="none" 
	d="
M193.000000,1.500000 
	C192.673340,1.904337 192.411316,1.717865 192.106964,1.220292 
	C192.333328,1.000000 192.666672,1.000000 193.000000,1.500000 
z"/>
<path fill="#F8F8F8" opacity="1.000000" stroke="none" 
	d="
M1.500000,1.000000 
	C1.901031,1.324487 1.714883,1.587192 1.220778,1.894058 
	C1.000000,1.666667 1.000000,1.333333 1.500000,1.000000 
z"/>
<path fill="#23B8B2" opacity="1.000000" stroke="none" 
	d="
M136.987778,150.820465 
	C138.709671,150.863266 140.431564,150.906082 143.013428,150.991516 
	C146.930191,151.351654 149.987000,151.669205 153.043808,151.986740 
	C153.043808,151.986740 152.867004,152.332031 152.520721,152.629913 
	C148.504242,157.531815 143.630875,158.214706 138.015335,158.166061 
	C111.769379,157.938644 85.519310,157.938156 59.273136,158.152344 
	C52.518032,158.207474 46.064697,158.346222 41.170567,152.708740 
	C41.158783,152.366516 41.147003,152.024292 41.581696,151.412735 
	C61.024967,151.129272 80.021851,151.145676 99.018524,151.090256 
	C111.675102,151.053345 124.331367,150.913971 136.987778,150.820465 
z"/>
<path fill="#31BFB8" opacity="1.000000" stroke="none" 
	d="
M109.200172,68.613441 
	C109.106476,68.258064 109.012787,67.902695 108.912094,66.890999 
	C108.843697,65.146851 108.782310,64.059013 108.720932,62.971180 
	C108.846046,62.621136 108.971169,62.271088 109.605682,61.616688 
	C126.075546,61.197063 142.036026,61.081795 158.393372,61.030617 
	C159.859268,61.064568 160.928284,61.034428 162.377960,61.093060 
	C164.783813,62.228004 166.808975,63.274181 168.834137,64.320358 
	C168.982010,64.802101 169.129883,65.283836 169.460327,66.272713 
	C169.662872,67.413635 169.682846,68.047424 169.702805,68.681206 
	C169.702805,68.681206 169.945679,68.994614 169.375977,68.829422 
	C148.937576,68.647301 129.068878,68.630371 109.200172,68.613441 
z"/>
<path fill="#24B6B1" opacity="1.000000" stroke="none" 
	d="
M124.738190,170.702087 
	C107.036598,170.806747 89.334747,170.985306 71.633759,170.922089 
	C69.432861,170.914230 67.236549,169.623596 64.475967,168.569153 
	C63.332005,168.063400 62.750179,167.915863 62.168354,167.768326 
	C62.168354,167.768326 62.058159,168.003098 61.956573,167.634338 
	C61.319702,167.080551 60.784412,166.895554 60.249123,166.710541 
	C60.249123,166.710541 60.201393,166.960342 60.095383,166.614197 
	C59.736210,166.016708 59.432606,165.912933 59.078560,165.956696 
	C58.818790,165.703827 58.559025,165.450974 58.125626,164.847504 
	C57.951996,164.496902 57.980476,164.003601 57.980476,164.003601 
	C58.435760,163.970764 58.891048,163.937927 60.137527,163.967819 
	C82.756203,164.050079 104.583778,164.044373 126.410995,164.129333 
	C128.519577,164.137558 130.637009,164.655975 132.716095,165.098465 
	C132.921555,165.142181 132.886185,166.317627 132.962585,166.967789 
	C132.962585,166.967789 133.002151,166.997025 132.657455,167.024139 
	C131.206940,167.700409 130.101120,168.349579 128.995285,168.998749 
	C128.995285,168.998749 129.000000,169.000000 128.662216,168.992920 
	C127.129021,169.557922 125.933601,170.129990 124.738190,170.702087 
z"/>
<path fill="#22B7B1" opacity="1.000000" stroke="none" 
	d="
M108.820190,88.969254 
	C108.900757,88.578407 108.981331,88.187561 109.554474,87.464264 
	C131.669479,87.123428 153.291901,87.115044 174.914322,87.106651 
	C174.914322,87.106651 174.882004,87.035126 174.902161,87.503700 
	C174.971924,89.982285 175.021515,91.992287 175.071121,94.002296 
	C175.071121,94.002296 175.002533,93.997208 174.534302,94.005157 
	C152.402969,93.981888 130.739838,93.950676 109.076721,93.919464 
	C109.076721,93.919464 109.000824,94.000412 109.047745,93.548538 
	C109.003174,91.720863 108.911682,90.345062 108.820190,88.969254 
z"/>
<path fill="#23B7B0" opacity="1.000000" stroke="none" 
	d="
M175.186386,105.984375 
	C173.803864,106.341812 172.422333,107.005890 171.038651,107.010437 
	C151.879791,107.073433 132.720505,107.073654 113.561775,106.986496 
	C112.071884,106.979721 110.585487,106.205688 109.043602,104.988190 
	C109.022240,102.820999 109.054741,101.453880 109.087242,100.086769 
	C109.087242,100.086769 109.000305,100.000000 109.504166,100.028481 
	C131.680130,100.020035 153.352219,99.983101 175.024307,99.946175 
	C175.024307,99.946175 175.007797,100.003395 175.053726,100.418457 
	C175.128571,102.550468 175.157471,104.267426 175.186386,105.984375 
z"/>
<path fill="#24B8B3" opacity="1.000000" stroke="none" 
	d="
M109.011177,81.007996 
	C108.977631,80.829956 108.944077,80.651917 108.916977,79.795013 
	C109.064278,77.551025 109.205124,75.985901 109.387604,73.958145 
	C129.936005,73.958145 149.968872,73.958145 170.001740,73.958145 
	C170.394684,74.032852 170.787628,74.107559 171.591599,74.479385 
	C172.610367,76.200951 173.218109,77.625412 173.825867,79.049866 
	C173.813828,79.471481 173.801773,79.893089 173.353363,80.676224 
	C151.615051,81.027832 130.313110,81.017914 109.011177,81.007996 
z"/>
<path fill="#3DB8B1" opacity="1.000000" stroke="none" 
	d="
M152.874588,145.657379 
	C151.858780,145.591141 150.842957,145.524902 149.003326,145.413361 
	C110.430458,145.352936 72.681419,145.337814 34.932384,145.322693 
	C34.932384,145.322693 34.563370,145.075897 34.295113,144.709351 
	C33.494850,143.793701 32.962841,143.244583 32.430832,142.695480 
	C32.430832,142.695480 32.367054,142.643738 32.325928,142.280121 
	C31.900759,140.649918 31.516720,139.383331 31.123577,138.095963 
	C31.114471,138.075165 31.118803,138.129562 31.579769,138.147308 
	C75.498306,138.165054 118.955879,138.165054 162.846008,138.165054 
	C162.446838,139.802277 162.185806,140.872925 161.924774,141.943558 
	C161.924774,141.943558 161.990143,142.004379 161.706757,142.060547 
	C160.995926,142.450531 160.568497,142.784363 160.075531,142.694244 
	C158.141312,141.503342 156.274872,140.073532 154.403610,140.067200 
	C115.940384,139.937302 77.476608,139.966827 39.012943,139.981079 
	C37.622345,139.981598 36.231812,140.148773 34.841244,140.238266 
	C34.734524,140.787384 34.627804,141.336502 34.521084,141.885605 
	C37.135250,142.597595 39.746769,143.917648 42.363991,143.929016 
	C74.333168,144.068192 106.303337,144.067566 138.272858,143.972549 
	C145.555695,143.950897 152.837051,143.430695 160.095612,143.440445 
	C159.987930,144.133194 159.903687,144.525497 159.819443,144.917786 
	C159.819443,144.917786 159.413925,145.046066 158.796173,145.123489 
	C156.410461,145.353058 154.642532,145.505219 152.874588,145.657379 
z"/>
<path fill="#DDF9F9" opacity="1.000000" stroke="none" 
	d="
M108.999252,81.448929 
	C130.313110,81.017914 151.615051,81.027832 173.371094,80.992882 
	C174.250961,81.399734 174.999329,81.823776 175.040909,82.308456 
	C175.157257,83.664726 174.981476,85.046051 174.917648,86.762070 
	C153.291901,87.115044 131.669479,87.123428 109.590324,87.166306 
	C109.084846,85.430489 109.036087,83.660172 108.999252,81.448929 
z"/>
<path fill="#22B7B1" opacity="1.000000" stroke="none" 
	d="
M74.029129,86.923241 
	C74.137909,87.105515 74.246689,87.287781 74.401749,88.116470 
	C74.339417,90.510864 74.230812,92.258842 74.122208,94.006828 
	C73.681267,94.071777 73.240326,94.136719 72.070885,94.190834 
	C69.935486,94.242645 68.528587,94.305290 66.751816,94.277603 
	C65.880440,94.241028 65.378937,94.294792 64.429657,94.242630 
	C54.989658,94.202339 45.997425,94.267975 36.591736,94.231934 
	C34.491249,94.194855 32.804222,94.259460 30.748138,94.238678 
	C29.881618,94.215820 29.384153,94.278351 28.456318,94.246445 
	C25.370729,94.193665 22.715511,94.235336 19.805710,94.167587 
	C19.368219,94.032219 19.185316,94.006264 18.965765,93.605865 
	C18.831102,92.486290 18.733086,91.741165 18.744617,90.615326 
	C18.935173,89.182190 19.016178,88.129761 19.097183,87.077339 
	C19.097183,87.077339 19.003361,87.009361 19.502773,87.032440 
	C38.011166,87.011429 56.020149,86.967331 74.029129,86.923241 
z"/>
<path fill="#26B8B3" opacity="1.000000" stroke="none" 
	d="
M73.876305,74.178825 
	C73.876305,74.178825 74.137405,74.537781 74.211136,75.125664 
	C74.245415,77.480965 74.205978,79.248375 74.166534,81.015793 
	C73.975708,81.089882 73.784882,81.163979 72.866272,81.265167 
	C56.593693,81.277740 41.047489,81.359978 25.505754,81.134483 
	C23.403757,81.103981 21.324175,79.528442 19.234215,78.668312 
	C20.598501,77.170853 21.962788,75.673393 24.137447,74.198120 
	C39.627663,74.149673 54.307507,74.079041 69.323425,74.062119 
	C70.110085,74.078247 70.560654,74.040665 71.361343,74.095215 
	C72.433067,74.184509 73.154686,74.181664 73.876305,74.178825 
z"/>
<path fill="#24B9B3" opacity="1.000000" stroke="none" 
	d="
M29.054060,112.447182 
	C29.479902,112.507156 29.905743,112.567123 31.095829,112.672668 
	C45.866623,112.718239 59.873173,112.718239 74.361992,112.718239 
	C74.179657,115.725067 74.051651,117.836105 73.923637,119.947144 
	C73.923637,119.947144 73.989105,119.999939 73.506683,119.919601 
	C57.755150,119.836502 42.482586,119.648933 27.218895,119.934982 
	C22.131931,120.030312 20.319611,118.100288 20.693743,113.090302 
	C23.514286,112.873329 26.284174,112.660255 29.054060,112.447182 
z"/>
<path fill="#26B9B4" opacity="1.000000" stroke="none" 
	d="
M108.714539,49.966812 
	C108.779518,49.808979 108.844490,49.651150 109.426956,49.191662 
	C126.607567,48.952641 143.270706,49.015278 159.933838,49.077915 
	C159.933838,49.077915 159.993774,48.997395 159.983429,49.335846 
	C160.505966,50.229160 161.038864,50.784019 161.571777,51.338875 
	C161.571777,51.338875 161.655838,51.361950 161.657196,51.721748 
	C162.049469,53.352737 162.440399,54.623920 162.611877,55.897415 
	C162.392441,55.899719 161.981522,56.054008 161.524109,55.950981 
	C143.763870,55.832832 126.461037,55.817707 109.158195,55.802578 
	C109.158195,55.802578 109.058701,55.920082 109.092117,55.467930 
	C108.988541,53.332790 108.851540,51.649799 108.714539,49.966812 
z"/>
<path fill="#25BAB4" opacity="1.000000" stroke="none" 
	d="
M69.000580,61.052834 
	C69.447182,61.093536 69.893776,61.134243 70.988579,61.209412 
	C72.292351,61.255829 72.947914,61.267780 73.742706,61.695892 
	C73.881927,64.003937 73.881927,65.895821 73.881927,67.815483 
	C56.919197,67.815483 40.551041,67.815483 24.182880,67.815483 
	C24.224438,67.499352 24.269192,67.183678 24.529768,66.454460 
	C24.824326,65.693054 24.906256,65.345642 24.988186,64.998230 
	C24.988184,64.998230 25.205700,64.706871 25.534344,64.301437 
	C27.921124,63.015301 29.979258,62.134605 32.503021,61.280426 
	C44.979290,61.222240 56.989937,61.137535 69.000580,61.052834 
z"/>
<path fill="#DEFBFC" opacity="1.000000" stroke="none" 
	d="
M19.078808,78.988876 
	C21.324175,79.528442 23.403757,81.103981 25.505754,81.134483 
	C41.047489,81.359978 56.593693,81.277740 72.597122,81.412964 
	C73.353874,83.097809 73.651985,84.661964 73.989609,86.574677 
	C56.020149,86.967331 38.011166,87.011429 19.540388,87.076530 
	C19.026859,84.501511 18.975130,81.905479 19.078808,78.988876 
z"/>
<path fill="#DEFCFB" opacity="1.000000" stroke="none" 
	d="
M170.005219,73.522346 
	C149.968872,73.958145 129.936005,73.958145 109.387604,73.958145 
	C109.205124,75.985901 109.064278,77.551025 108.826904,79.538612 
	C108.843338,76.471169 108.956299,72.981262 109.134720,69.052399 
	C129.068878,68.630371 148.937576,68.647301 169.244064,68.681168 
	C169.790802,70.160919 169.899750,71.623734 170.005219,73.522346 
z"/>
<path fill="#D4F9F8" opacity="1.000000" stroke="none" 
	d="
M35.070908,145.685486 
	C72.681419,145.337814 110.430458,145.352936 148.633209,145.519928 
	C147.970093,146.252060 146.857895,147.329651 145.735779,147.340073 
	C115.892265,147.617554 86.047585,147.911575 56.203476,147.877670 
	C49.204777,147.869720 42.207413,146.689285 35.070908,145.685486 
z"/>
<path fill="#27B9B4" opacity="1.000000" stroke="none" 
	d="
M32.031769,56.035587 
	C32.031769,56.035587 31.603561,55.894753 31.391129,55.545975 
	C32.151424,53.155991 33.124157,51.114780 34.096889,49.073570 
	C34.096889,49.073570 34.017288,49.006191 34.290298,49.026863 
	C34.704948,48.956673 34.846588,48.865814 35.456272,48.804707 
	C48.491821,48.834457 61.059322,48.834457 73.914330,48.834457 
	C73.914330,51.520851 73.914330,53.615322 73.548859,55.728382 
	C72.459518,55.836731 71.735634,55.926495 71.011757,56.016258 
	C70.560036,55.968788 70.108315,55.921314 68.861374,55.848793 
	C56.054691,55.894360 44.043232,55.964973 32.031769,56.035587 
z"/>
<path fill="#F8FEFE" opacity="1.000000" stroke="none" 
	d="
M81.994125,136.971481 
	C81.800674,133.906143 83.423309,132.966156 86.268082,132.974609 
	C104.484406,133.028763 122.701729,132.934753 140.915924,133.138992 
	C142.283310,133.154327 143.628937,135.109985 144.526001,136.579651 
	C123.376259,136.987595 102.685188,136.979538 81.994125,136.971481 
z"/>
<path fill="#D4F9F8" opacity="1.000000" stroke="none" 
	d="
M41.139141,153.077118 
	C46.064697,158.346222 52.518032,158.207474 59.273136,158.152344 
	C85.519310,157.938156 111.769379,157.938644 138.015335,158.166061 
	C143.630875,158.214706 148.504242,157.531815 152.505447,152.823273 
	C152.205093,157.762909 147.003433,159.984360 140.443878,159.979614 
	C119.668015,159.964600 98.892143,159.972244 78.116272,159.971542 
	C69.307304,159.971237 60.495884,159.847214 51.690304,160.020020 
	C46.591949,160.120102 43.169334,157.997223 41.139141,153.077118 
z"/>
<path fill="#DFFAF9" opacity="1.000000" stroke="none" 
	d="
M28.886688,94.340881 
	C29.384153,94.278351 29.881618,94.215820 31.042538,94.453468 
	C33.472225,94.826988 35.238461,94.900322 37.472984,94.982353 
	C46.919987,94.776886 55.898708,94.562721 64.877426,94.348557 
	C65.378937,94.294792 65.880440,94.241028 66.994278,94.489548 
	C69.407867,94.847664 71.209122,94.903488 73.010376,94.959312 
	C74.000244,96.713577 74.990105,98.467842 75.750381,100.610764 
	C75.221458,100.998329 74.922302,100.990784 74.361145,100.721527 
	C73.692703,100.199509 73.286407,99.932747 72.587143,99.456177 
	C70.168709,98.627480 68.043259,98.008575 66.054787,97.429558 
	C64.231049,97.925583 62.274975,98.851982 60.285011,98.931625 
	C50.899593,99.307220 41.504887,99.450912 31.711437,99.761612 
	C30.495600,99.782822 29.681822,99.719727 28.575123,99.447884 
	C26.602800,98.989311 24.923399,98.739487 23.243996,98.489670 
	C23.095442,97.938095 22.946886,97.386520 22.798332,96.834946 
	C24.827785,96.003593 26.857237,95.172241 28.886688,94.340881 
z"/>
<path fill="#13B7B1" opacity="1.000000" stroke="none" 
	d="
M150.051575,38.844311 
	C150.051575,38.844311 150.112885,39.222118 150.094604,39.804424 
	C150.021896,41.187843 149.967453,41.988956 149.594849,42.830505 
	C148.851868,42.832283 148.427063,42.793613 147.672623,42.508644 
	C140.274200,42.169571 133.204483,41.965858 126.136963,42.024788 
	C121.755592,42.061321 117.377563,42.496521 112.684090,42.796745 
	C111.950935,42.796417 111.531715,42.752110 111.045746,42.424633 
	C110.376724,41.731613 109.774467,41.321762 109.172211,40.911907 
	C109.172211,40.911907 108.992142,40.965012 109.004288,40.619869 
	C109.102989,39.226501 109.189552,38.178276 109.722992,37.098755 
	C122.263008,36.946735 134.356155,36.826019 146.686020,36.916267 
	C147.965683,37.699596 149.008636,38.271954 150.051575,38.844311 
z"/>
<path fill="#DEFCFB" opacity="1.000000" stroke="none" 
	d="
M111.112503,42.707802 
	C111.531715,42.752110 111.950935,42.796417 113.143036,42.900627 
	C125.278038,42.892002 136.640152,42.823479 148.002258,42.754951 
	C148.427063,42.793613 148.851868,42.832283 149.943771,42.925209 
	C151.369644,42.354118 152.128418,41.728771 152.887192,41.103424 
	C155.140106,42.880875 155.186172,43.993176 152.709824,44.462479 
	C150.068619,44.963024 147.260574,44.583275 143.787781,44.785736 
	C134.947922,44.660915 126.847443,44.248001 118.741959,44.085888 
	C116.961220,44.050274 115.162651,44.906136 113.372292,45.351467 
	C113.490456,45.900620 113.608612,46.449776 113.726776,46.998932 
	C124.151192,46.998932 134.575607,46.998932 145.000015,46.998932 
	C149.943100,47.421158 154.886185,47.843388 159.881561,48.671768 
	C143.270706,49.015278 126.607567,48.952641 109.479431,48.941071 
	C109.022842,47.239822 109.031250,45.487503 109.407547,43.315666 
	C110.221123,42.833366 110.666809,42.770584 111.112503,42.707802 
z"/>
<path fill="#FAFEFE" opacity="1.000000" stroke="none" 
	d="
M161.981522,56.054008 
	C161.981522,56.054008 162.392441,55.899719 162.969269,55.940128 
	C164.025345,55.977726 164.504608,55.974911 164.983856,55.972099 
	C164.990189,57.031643 164.996521,58.091187 164.664764,59.565639 
	C163.550232,60.321796 162.773758,60.663044 161.997299,61.004288 
	C160.928284,61.034428 159.859268,61.064568 158.094849,60.740631 
	C141.267120,60.257446 125.134781,60.128330 109.002441,59.999214 
	C109.002815,59.550663 109.003189,59.102116 109.421143,58.269196 
	C110.789467,57.610992 111.742485,57.091228 112.690575,57.100086 
	C127.898643,57.242146 143.105865,57.489029 158.314056,57.574860 
	C159.533646,57.581745 160.758896,56.584583 161.981522,56.054008 
z"/>
<path fill="#DAFAF8" opacity="1.000000" stroke="none" 
	d="
M149.995987,38.467354 
	C149.008636,38.271954 147.965683,37.699596 146.334991,36.627724 
	C134.362396,36.038624 122.977585,35.924046 111.592690,35.914841 
	C110.820824,35.914219 110.048317,36.706520 109.276108,37.130051 
	C109.189552,38.178276 109.102989,39.226501 108.918411,40.657787 
	C107.678223,39.325455 106.536049,37.610062 105.773643,36.465023 
	C107.089691,34.125706 108.053749,32.412056 109.508026,30.332052 
	C118.935768,29.699104 127.873283,29.432512 136.810806,29.165916 
	C137.266556,29.683950 137.722290,30.201984 138.178040,30.720020 
	C136.620529,31.143873 135.071091,31.894482 133.504059,31.933203 
	C127.706779,32.076458 121.903572,31.964613 116.102837,31.994976 
	C114.599396,32.002842 113.096832,32.179382 111.593864,32.278442 
	C111.592674,32.755695 111.591484,33.232944 111.590294,33.710194 
	C113.091209,33.812119 114.591866,33.997810 116.093063,34.002281 
	C125.374451,34.029915 134.660278,34.178745 143.935135,33.931496 
	C147.293976,33.841953 149.340469,34.667809 149.995987,38.467354 
z"/>
<path fill="#3AB4AC" opacity="1.000000" stroke="none" 
	d="
M72.880119,99.665977 
	C73.286407,99.932747 73.692703,100.199509 74.244217,101.142288 
	C74.296448,103.558029 74.203453,105.297752 74.110458,107.037468 
	C73.931839,107.067856 73.753212,107.098251 72.856079,107.116211 
	C55.735500,106.968971 39.333408,106.834160 23.045559,106.355591 
	C28.457293,105.683533 33.757160,105.051132 39.051773,105.092422 
	C49.010677,105.170090 58.965652,105.688507 68.925079,105.860413 
	C69.911217,105.877434 70.916847,104.764954 71.913429,104.176727 
	C71.231903,103.169861 70.735481,101.903122 69.807564,101.242195 
	C69.122437,100.754181 67.874634,101.013237 66.877495,101.012672 
	C52.880943,101.004738 38.883278,101.110184 24.888466,100.954994 
	C20.141903,100.902367 19.322365,102.821754 20.641432,106.799004 
	C19.680285,104.751572 19.129047,102.650681 18.480768,100.179947 
	C22.667568,99.969017 25.767805,99.812828 28.868044,99.656631 
	C29.681822,99.719727 30.495600,99.782822 32.162128,99.852440 
	C46.303291,99.794632 59.591705,99.730301 72.880119,99.665977 
z"/>
<path fill="#2AB7AF" opacity="1.000000" stroke="none" 
	d="
M136.826874,29.160736 
	C127.873283,29.432512 118.935768,29.699104 109.535805,29.944096 
	C109.073364,29.922497 109.058929,29.960482 109.060638,29.537556 
	C108.963417,27.745243 108.864494,26.375856 108.765579,25.006470 
	C108.867775,24.611393 108.969963,24.216314 109.555725,23.472656 
	C114.016792,23.003910 117.994293,22.883743 121.971786,22.763577 
	C122.657944,22.883072 123.344101,23.002569 124.627632,23.390369 
	C129.096359,25.483505 132.967728,27.308338 136.839081,29.133169 
	C136.839081,29.133169 136.842926,29.155554 136.826874,29.160736 
z"/>
<path fill="#D4F9F8" opacity="1.000000" stroke="none" 
	d="
M81.545212,136.977631 
	C102.685188,136.979538 123.376259,136.987595 144.536514,136.984146 
	C149.184280,136.577393 153.367966,135.850433 157.539490,135.914505 
	C159.944412,135.951416 162.329697,137.266846 164.723831,138.006821 
	C164.054718,139.328674 163.385605,140.650528 162.320633,141.957977 
	C162.185806,140.872925 162.446838,139.802277 162.846008,138.165054 
	C118.955879,138.165054 75.498306,138.165054 31.696095,137.867432 
	C31.906326,137.367798 32.461201,137.165787 33.483025,136.972229 
	C44.965427,136.984894 55.980885,136.989105 67.425629,136.998169 
	C69.574051,136.995941 71.293190,136.988876 73.012321,136.981827 
	C75.706985,136.982483 78.401642,136.983139 81.545212,136.977631 
z"/>
<path fill="#EDFEFD" opacity="1.000000" stroke="none" 
	d="
M24.991459,123.989403 
	C24.993965,123.255157 24.996471,122.520905 25.452795,121.402222 
	C38.684547,121.013100 51.462673,121.044044 64.240288,120.977600 
	C67.272751,120.961823 68.942787,121.585922 66.679237,124.959785 
	C65.888596,124.974655 65.435913,124.943764 64.675957,124.634903 
	C55.307655,124.240189 46.246708,124.063057 37.185566,124.052681 
	C35.133762,124.050331 33.081295,124.627251 30.611393,124.988190 
	C28.793415,125.001099 27.393179,124.963341 25.879578,124.719025 
	C25.560520,124.260300 25.302267,124.085938 24.991459,123.989403 
z"/>
<path fill="#CEF7FA" opacity="1.000000" stroke="none" 
	d="
M109.126671,94.325531 
	C130.739838,93.950676 152.402969,93.981888 174.533264,94.039520 
	C173.859802,94.698181 172.722290,95.875153 171.578125,95.881645 
	C151.770020,95.994080 131.961044,95.980331 112.152542,95.910149 
	C111.159187,95.906624 110.168533,95.141891 109.126671,94.325531 
z"/>
<path fill="#BEF2EE" opacity="1.000000" stroke="none" 
	d="
M24.129738,68.131577 
	C40.551041,67.815483 56.919197,67.815483 73.881927,67.815483 
	C73.881927,65.895821 73.881927,64.003937 74.070648,61.613640 
	C74.482643,61.090450 74.705910,61.065678 74.929184,61.040905 
	C74.756424,64.859627 74.583664,68.678352 73.836624,72.743263 
	C72.892075,72.997284 72.521797,73.005112 72.104614,72.590477 
	C71.010185,71.428215 69.970047,70.057060 68.913971,70.044685 
	C56.019726,69.893570 43.121887,69.864174 30.229322,70.072479 
	C29.082859,70.091003 27.966812,71.992188 26.556948,73.011810 
	C25.906563,73.007584 25.535870,73.010521 25.165176,73.013466 
	C24.802317,71.491531 24.439455,69.969597 24.129738,68.131577 
z"/>
<path fill="#D0FAF8" opacity="1.000000" stroke="none" 
	d="
M174.935516,99.562485 
	C153.352219,99.983101 131.680130,100.020035 109.547028,100.071991 
	C110.330093,99.403877 111.578026,98.120193 112.817650,98.128166 
	C129.865234,98.237831 146.911926,98.511070 163.958252,98.780891 
	C167.588943,98.838364 171.217300,99.042328 174.935516,99.562485 
z"/>
<path fill="#DFFAF9" opacity="1.000000" stroke="none" 
	d="
M67.017204,124.914032 
	C68.942787,121.585922 67.272751,120.961823 64.240288,120.977600 
	C51.462673,121.044044 38.684547,121.013100 25.433905,121.036514 
	C20.499790,122.388802 18.874701,119.457176 18.114641,116.058327 
	C17.227673,112.091972 19.461540,110.573067 23.219112,110.979126 
	C25.110165,111.183487 26.986200,111.526817 28.961544,112.127243 
	C26.284174,112.660255 23.514286,112.873329 20.693743,113.090302 
	C20.319611,118.100288 22.131931,120.030312 27.218895,119.934982 
	C42.482586,119.648933 57.755150,119.836502 73.487091,119.882401 
	C73.969475,120.106621 73.989021,120.287712 73.674179,120.786606 
	C71.368103,122.571983 71.766998,123.495544 74.003685,123.997353 
	C74.004639,124.170296 74.005585,124.343231 73.721443,124.796028 
	C72.935471,125.271347 72.434586,125.466797 71.528946,125.670654 
	C69.774582,125.670395 68.424988,125.661736 67.067421,125.467796 
	C67.059448,125.282516 67.017204,124.914032 67.017204,124.914032 
z"/>
<path fill="#DFFAF9" opacity="1.000000" stroke="none" 
	d="
M74.277771,119.948364 
	C74.051651,117.836105 74.179657,115.725067 74.361992,112.718239 
	C59.873173,112.718239 45.866623,112.718239 31.407402,112.577026 
	C32.571320,111.959763 34.183136,111.091240 35.805264,111.071526 
	C46.119438,110.946220 56.437248,111.088791 66.749992,110.914246 
	C68.158592,110.890404 69.545631,109.592613 71.294861,108.449493 
	C72.128784,107.993195 72.610497,107.972076 73.092209,107.950951 
	C74.168045,110.130684 74.967278,112.513603 76.384369,114.442657 
	C78.525146,117.356827 77.530304,118.851898 74.277771,119.948364 
z"/>
<path fill="#D2F6F4" opacity="1.000000" stroke="none" 
	d="
M74.938507,60.636101 
	C74.705910,61.065678 74.482643,61.090450 73.931427,61.197479 
	C72.947914,61.267780 72.292351,61.255829 71.320808,61.148819 
	C71.344711,59.940086 71.684586,58.826416 72.338943,57.325897 
	C73.073730,56.529297 73.494026,56.119545 73.914330,55.709793 
	C73.914330,53.615322 73.914330,51.520851 73.914330,48.834457 
	C61.059322,48.834457 48.491821,48.834457 35.449299,48.591286 
	C34.974281,48.348110 34.943707,47.921501 34.943707,47.921501 
	C36.527565,47.622475 38.109154,47.079559 39.695663,47.064774 
	C48.692913,46.980911 57.692730,47.117729 66.688812,46.985214 
	C71.576706,46.913216 76.642197,46.126328 77.185158,52.388535 
	C76.338066,55.357948 75.642944,57.794624 74.938507,60.636101 
z"/>
<path fill="#DDFAF9" opacity="1.000000" stroke="none" 
	d="
M73.086281,107.792770 
	C72.610497,107.972076 72.128784,107.993195 71.285690,108.036484 
	C55.188587,108.043221 39.452507,108.085312 23.717329,107.985542 
	C16.913933,107.942413 16.896919,107.809006 17.028248,100.971977 
	C17.050114,99.833549 17.304064,98.699577 18.046497,97.321259 
	C19.345705,97.418816 20.049183,97.758667 21.495209,98.457237 
	C20.838539,96.544212 20.449417,95.410606 20.060295,94.277000 
	C22.715511,94.235336 25.370729,94.193665 28.456318,94.246445 
	C26.857237,95.172241 24.827785,96.003593 22.798332,96.834946 
	C22.946886,97.386520 23.095442,97.938095 23.243996,98.489670 
	C24.923399,98.739487 26.602800,98.989311 28.575123,99.447891 
	C25.767805,99.812828 22.667568,99.969017 18.480768,100.179947 
	C19.129047,102.650681 19.680285,104.751572 20.954342,106.859207 
	C22.095215,106.810425 22.513266,106.754883 22.931318,106.699348 
	C39.333408,106.834160 55.735500,106.968971 72.601387,107.211075 
	C73.065186,107.318367 73.080353,107.634590 73.086281,107.792770 
z"/>
<path fill="#3BB6AC" opacity="1.000000" stroke="none" 
	d="
M45.953362,36.978962 
	C46.270229,36.884186 46.547398,36.721699 47.242310,36.264465 
	C48.126068,35.911274 48.552383,35.785122 49.437050,35.766159 
	C57.571800,35.816433 65.248199,35.759518 73.264053,35.964310 
	C73.737328,38.483021 73.871147,40.740032 74.004974,42.997044 
	C73.838150,43.027538 73.671333,43.058033 72.893326,43.055222 
	C71.531303,42.918236 70.780472,42.814548 70.276245,42.466461 
	C73.543213,39.099270 72.091805,37.290936 68.552727,37.107418 
	C62.570389,36.797203 56.553173,36.870239 50.566299,37.135715 
	C49.022648,37.204166 47.537426,38.590256 46.025364,39.371063 
	C46.213417,39.923447 46.401470,40.475834 46.589527,41.028221 
	C52.183990,41.028221 57.782574,40.909637 63.370296,41.103714 
	C64.954666,41.158745 66.507362,42.125736 67.609970,42.767052 
	C58.763885,42.921974 50.382404,42.984344 41.774605,42.859371 
	C41.366821,42.117817 41.185356,41.563602 41.003891,41.009388 
	C41.003891,41.009388 41.147812,40.668716 41.504868,40.446812 
	C42.243984,40.015347 42.626041,39.805786 43.008102,39.596230 
	C43.576630,39.191406 44.145153,38.786579 45.083916,38.090202 
	C45.762215,37.611725 45.928619,37.338493 45.953362,36.978962 
z"/>
<path fill="#D4F9F8" opacity="1.000000" stroke="none" 
	d="
M136.670654,150.557297 
	C124.331367,150.913971 111.675102,151.053345 99.018524,151.090256 
	C80.021851,151.145676 61.024967,151.129272 41.568665,151.156097 
	C42.646542,150.491348 44.169014,149.291077 45.724442,149.246719 
	C48.833897,149.158051 51.960785,149.940170 55.081570,149.948410 
	C80.356567,150.015228 105.631828,149.979599 130.906982,149.999207 
	C132.722565,150.000626 134.538025,150.191391 136.670654,150.557297 
z"/>
<path fill="#AFF2F0" opacity="1.000000" stroke="none" 
	d="
M133.340302,166.984955 
	C132.886185,166.317627 132.921555,165.142181 132.716095,165.098465 
	C130.637009,164.655975 128.519577,164.137558 126.410995,164.129333 
	C104.583778,164.044373 82.756203,164.050079 60.476036,163.915298 
	C61.107159,163.521240 62.190659,163.000610 63.274837,162.999207 
	C87.134842,162.968140 110.994919,162.991882 134.854965,163.021759 
	C135.659271,163.022766 136.463348,163.196381 137.931168,164.423615 
	C136.526794,165.283112 135.122406,166.142624 133.340302,166.984955 
z"/>
<path fill="#F8FEFE" opacity="1.000000" stroke="none" 
	d="
M144.891022,46.736950 
	C134.575607,46.998932 124.151192,46.998932 113.726776,46.998932 
	C113.608612,46.449776 113.490456,45.900620 113.372292,45.351467 
	C115.162651,44.906136 116.961220,44.050274 118.741959,44.085888 
	C126.847443,44.248001 134.947922,44.660915 143.514526,44.978737 
	C144.246567,45.474216 144.514297,45.974590 144.891022,46.736950 
z"/>
<path fill="#38B2AE" opacity="1.000000" stroke="none" 
	d="
M60.021099,30.297058 
	C59.288342,30.174274 58.555584,30.051491 57.517456,29.710848 
	C57.212086,29.492989 57.164791,29.228382 57.164791,29.228382 
	C57.164791,29.228382 57.194824,29.184122 57.546989,29.121971 
	C60.038548,27.776670 62.177944,26.493521 64.317337,25.210371 
	C64.317337,25.210371 64.663170,25.145805 65.192131,25.039722 
	C68.473099,24.291035 71.225113,23.648430 73.977119,23.005825 
	C73.977119,23.005825 73.994698,23.005106 74.029327,23.447784 
	C74.034386,25.918459 74.004822,27.946457 73.713211,30.023996 
	C73.282181,30.128807 73.113190,30.184074 72.492630,30.154163 
	C68.034401,30.145010 64.027748,30.221035 60.021099,30.297058 
z"/>
<path fill="#EDFEFD" opacity="1.000000" stroke="none" 
	d="
M72.991394,136.694611 
	C71.293190,136.988876 69.574051,136.995941 67.410858,136.583282 
	C65.906860,135.444504 64.857948,134.120956 63.785275,134.101410 
	C54.662750,133.935165 45.533203,133.901474 36.413719,134.136734 
	C35.257633,134.166550 34.147499,135.977844 33.016075,136.963776 
	C32.461201,137.165787 31.906326,137.367798 31.235126,137.849670 
	C31.118803,138.129562 31.114471,138.075165 30.836849,138.044037 
	C30.366201,137.995926 30.173174,137.978943 29.980148,137.961945 
	C29.020372,136.527054 28.060595,135.092148 27.358055,133.210159 
	C27.802818,132.658554 27.990341,132.554031 28.500237,132.540771 
	C29.487383,132.587997 30.152157,132.544006 31.198826,132.649109 
	C32.113163,132.712433 32.645599,132.626678 33.629509,132.606232 
	C44.329235,132.630783 54.577488,132.590012 65.215248,132.673706 
	C66.131454,132.694763 66.658165,132.591385 67.568253,132.557220 
	C69.245171,132.584610 70.538704,132.542786 72.119263,132.685333 
	C72.609329,132.972168 72.812363,133.074615 73.015404,133.177078 
	C73.000427,134.253845 72.985451,135.330612 72.991394,136.694611 
z"/>
<path fill="#DEFCFB" opacity="1.000000" stroke="none" 
	d="
M161.524109,55.950981 
	C160.758896,56.584583 159.533646,57.581745 158.314056,57.574860 
	C143.105865,57.489029 127.898643,57.242146 112.690575,57.100086 
	C111.742485,57.091228 110.789467,57.610992 109.424423,57.932800 
	C109.021782,57.495640 109.033455,57.010506 109.101654,56.163975 
	C126.461037,55.817707 143.763870,55.832832 161.524109,55.950981 
z"/>
<path fill="#DEFCFB" opacity="1.000000" stroke="none" 
	d="
M109.036911,60.346237 
	C125.134781,60.128330 141.267120,60.257446 157.697983,60.676544 
	C142.036026,61.081795 126.075546,61.197063 109.664917,61.344078 
	C109.166962,61.148300 109.119171,60.920776 109.036911,60.346237 
z"/>
<path fill="#C0F3F1" opacity="1.000000" stroke="none" 
	d="
M24.910210,73.106682 
	C25.535870,73.010521 25.906563,73.007584 27.044273,73.009598 
	C40.643707,72.741852 53.475677,72.432289 66.309517,72.276794 
	C67.195000,72.266068 68.094414,73.404427 68.987350,74.008408 
	C54.307507,74.079041 39.627663,74.149673 24.488058,74.134827 
	C24.237280,73.766205 24.446262,73.483047 24.910210,73.106682 
z"/>
<path fill="#D2F6F4" opacity="1.000000" stroke="none" 
	d="
M72.944206,30.239342 
	C73.113190,30.184074 73.282181,30.128807 73.962875,29.889935 
	C74.955765,29.139534 75.436951,28.572737 75.918137,28.005939 
	C75.545525,32.951595 75.172913,37.897251 74.402641,42.919975 
	C73.871147,40.740032 73.737328,38.483021 73.067665,35.770737 
	C71.992226,35.186459 71.452629,35.057457 70.913025,34.928455 
	C70.940903,33.893627 70.968781,32.858799 71.249260,31.407375 
	C71.982643,30.740301 72.463425,30.489822 72.944206,30.239342 
z"/>
<path fill="#D4F9F8" opacity="1.000000" stroke="none" 
	d="
M152.908783,146.021667 
	C154.642532,145.505219 156.410461,145.353058 158.622208,145.245804 
	C157.288818,147.490585 155.511642,149.690475 153.389130,151.938553 
	C149.987000,151.669205 146.930191,151.351654 143.439621,150.926025 
	C145.131073,150.218689 147.328796,149.794983 149.355713,148.957733 
	C150.679672,148.410873 151.755814,147.264053 152.908783,146.021667 
z"/>
<path fill="#D2F6F4" opacity="1.000000" stroke="none" 
	d="
M68.714615,60.745689 
	C56.989937,61.137535 44.979290,61.222240 32.484734,60.994827 
	C31.985094,60.492920 31.969370,60.303123 31.953646,60.113335 
	C44.111980,60.221737 56.270313,60.330143 68.714615,60.745689 
z"/>
<path fill="#D5FDFC" opacity="1.000000" stroke="none" 
	d="
M32.319420,56.334335 
	C44.043232,55.964973 56.054691,55.894360 68.525681,55.916405 
	C68.429375,56.323814 67.872276,56.915085 67.317886,56.912560 
	C55.747433,56.859818 44.177280,56.739826 32.319420,56.334335 
z"/>
<path fill="#FAFEFE" opacity="1.000000" stroke="none" 
	d="
M168.990234,60.027390 
	C171.305099,57.156490 173.619980,54.285591 175.934845,51.414696 
	C176.445465,56.533291 172.996841,59.182285 169.350800,61.635883 
	C168.993835,60.904861 168.992035,60.466129 168.990234,60.027390 
z"/>
<path fill="#C3F6F4" opacity="1.000000" stroke="none" 
	d="
M70.029648,42.710865 
	C70.780472,42.814548 71.531303,42.918236 72.648544,43.124390 
	C68.120216,43.484303 63.228130,43.842903 58.330009,43.971390 
	C53.199776,44.105957 48.063744,44.019569 42.463711,43.778423 
	C41.997173,43.527088 42.000927,43.046711 42.000927,43.046711 
	C50.382404,42.984344 58.763885,42.921974 67.932541,42.831070 
	C69.156357,42.771980 69.593002,42.741425 70.029648,42.710865 
z"/>
<path fill="#DAFAF8" opacity="1.000000" stroke="none" 
	d="
M136.891739,28.751158 
	C132.967728,27.308338 129.096359,25.483505 124.976082,23.402925 
	C129.587112,23.045309 134.122253,23.703392 136.891739,28.751158 
z"/>
<path fill="#68CDC5" opacity="1.000000" stroke="none" 
	d="
M28.177868,132.449524 
	C27.990341,132.554031 27.802818,132.658554 27.307888,132.858749 
	C27.000481,132.954437 26.692463,132.731949 26.436476,132.371475 
	C25.515450,130.962143 24.850410,129.913284 24.185371,128.864426 
	C24.185369,128.864426 24.212721,128.827484 24.212166,128.459381 
	C24.191629,127.158592 24.171646,126.225883 24.459690,125.238068 
	C25.176123,125.097168 25.584532,125.011383 25.992941,124.925591 
	C27.393179,124.963341 28.793415,125.001099 30.636700,125.173447 
	C31.079748,125.308044 31.074492,125.681656 30.851131,125.982796 
	C29.152960,126.713974 27.678148,127.144012 25.916098,127.657806 
	C26.796740,129.523514 27.487303,130.986511 28.177868,132.449524 
z"/>
<path fill="#C3F6F4" opacity="1.000000" stroke="none" 
	d="
M70.452950,34.934650 
	C71.452629,35.057457 71.992226,35.186459 72.728210,35.509033 
	C65.248199,35.759518 57.571800,35.816433 49.446571,35.569317 
	C48.997742,35.265285 49.034710,34.871700 49.034710,34.871700 
	C56.020763,34.894749 63.006813,34.917797 70.452950,34.934650 
z"/>
<path fill="#EDFEFD" opacity="1.000000" stroke="none" 
	d="
M24.151665,125.293182 
	C24.171646,126.225883 24.191629,127.158592 24.217289,128.436981 
	C22.383240,127.935066 20.543514,127.087448 18.703789,126.239830 
	C18.820318,125.660561 18.936848,125.081291 19.053377,124.502022 
	C20.503069,124.262390 21.952763,124.022758 23.728689,124.219177 
	C24.087172,124.867882 24.119417,125.080528 24.151665,125.293182 
z"/>
<path fill="#DAFAF8" opacity="1.000000" stroke="none" 
	d="
M121.671417,22.518284 
	C117.994293,22.883743 114.016792,23.003910 109.589035,23.167971 
	C110.252327,22.261480 111.415924,20.460493 112.469948,20.522482 
	C115.460960,20.698389 118.407188,21.635565 121.671417,22.518284 
z"/>
<path fill="#68CDC5" opacity="1.000000" stroke="none" 
	d="
M73.285225,133.070847 
	C72.812363,133.074615 72.609329,132.972168 72.247009,132.359848 
	C72.036400,129.787399 71.985054,127.724823 71.933708,125.662247 
	C72.434586,125.466797 72.935471,125.271347 73.713081,125.055298 
	C74.320358,126.117561 74.650902,127.200409 74.977356,129.004120 
	C74.974876,130.483826 74.976471,131.242661 74.978073,132.001511 
	C74.503731,132.322540 74.029388,132.643585 73.285225,133.070847 
z"/>
<path fill="#C3F6F4" opacity="1.000000" stroke="none" 
	d="
M73.960327,22.665180 
	C71.225113,23.648430 68.473099,24.291035 65.337471,24.940632 
	C68.417274,21.171061 71.788818,20.187283 73.960327,22.665180 
z"/>
<path fill="#BEF2EE" opacity="1.000000" stroke="none" 
	d="
M31.521204,60.084137 
	C31.969370,60.303123 31.985094,60.492920 32.019104,60.968311 
	C29.979258,62.134605 27.921124,63.015301 25.583546,64.126419 
	C24.045658,58.637833 28.287313,60.314697 31.521204,60.084137 
z"/>
<path fill="#C3F6F4" opacity="1.000000" stroke="none" 
	d="
M63.888313,25.137785 
	C62.177944,26.493521 60.038548,27.776670 57.566223,29.103390 
	C56.989151,24.248426 60.666809,25.331905 63.888313,25.137785 
z"/>
<path fill="#D5FDFC" opacity="1.000000" stroke="none" 
	d="
M33.742504,49.086189 
	C33.124157,51.114780 32.151424,53.155991 31.165932,55.536728 
	C27.803879,55.313931 28.843666,53.356113 30.051500,51.757225 
	C30.881788,50.658119 32.256660,49.970402 33.742504,49.086189 
z"/>
<path fill="#CEF7FA" opacity="1.000000" stroke="none" 
	d="
M175.444901,93.933914 
	C175.021515,91.992287 174.971924,89.982285 174.899536,87.544510 
	C178.711517,88.874939 177.096924,91.393700 175.444901,93.933914 
z"/>
<path fill="#D4F9F8" opacity="1.000000" stroke="none" 
	d="
M29.725658,138.171158 
	C30.173174,137.978943 30.366201,137.995926 30.845955,138.064819 
	C31.516720,139.383331 31.900759,140.649918 32.322487,142.239197 
	C29.214561,142.676025 27.018007,142.134430 29.725658,138.171158 
z"/>
<path fill="#C3F6F4" opacity="1.000000" stroke="none" 
	d="
M72.492630,30.154163 
	C72.463425,30.489822 71.982643,30.740301 71.218475,31.019901 
	C67.509926,30.959433 64.084763,30.869843 60.340351,30.538654 
	C64.027748,30.221035 68.034401,30.145010 72.492630,30.154163 
z"/>
<path fill="#DEFBFC" opacity="1.000000" stroke="none" 
	d="
M74.471634,93.940887 
	C74.230812,92.258842 74.339417,90.510864 74.612297,88.355301 
	C74.791405,89.923470 74.806229,91.899208 74.471634,93.940887 
z"/>
<path fill="#DEFCFB" opacity="1.000000" stroke="none" 
	d="
M164.984818,55.582912 
	C164.504608,55.974911 164.025345,55.977726 163.188705,55.937820 
	C162.440399,54.623920 162.049469,53.352737 161.629120,51.755089 
	C164.909622,50.721996 164.911713,52.990215 164.984818,55.582912 
z"/>
<path fill="#C3F6F4" opacity="1.000000" stroke="none" 
	d="
M75.940094,27.611130 
	C75.436951,28.572737 74.955765,29.139534 74.224922,29.840393 
	C74.004822,27.946457 74.034386,25.918459 74.030380,23.456476 
	C74.651886,24.420435 75.306969,25.818378 75.940094,27.611130 
z"/>
<path fill="#DDFAF9" opacity="1.000000" stroke="none" 
	d="
M74.479416,106.954330 
	C74.203453,105.297752 74.296448,103.558029 74.506378,101.397552 
	C74.922302,100.990784 75.221458,100.998329 75.745926,101.000870 
	C75.596832,102.958611 75.222603,104.914902 74.479416,106.954330 
z"/>
<path fill="#DEFCFB" opacity="1.000000" stroke="none" 
	d="
M108.362701,50.062431 
	C108.851540,51.649799 108.988541,53.332790 109.161179,55.433907 
	C105.635483,54.613468 106.625816,52.426865 108.362701,50.062431 
z"/>
<path fill="#DEFCFB" opacity="1.000000" stroke="none" 
	d="
M168.592010,60.020546 
	C168.992035,60.466129 168.993835,60.904861 169.003723,61.672882 
	C168.992386,62.518311 168.972977,63.034462 168.893860,63.935486 
	C166.808975,63.274181 164.783813,62.228004 162.377960,61.093060 
	C162.773758,60.663044 163.550232,60.321796 164.667084,59.962929 
	C166.069565,59.968105 167.131668,59.990902 168.592010,60.020546 
z"/>
<path fill="#DDF9F9" opacity="1.000000" stroke="none" 
	d="
M174.127197,78.840317 
	C173.218109,77.625412 172.610367,76.200951 171.893127,74.455315 
	C174.929794,74.301025 175.547012,75.955429 174.127197,78.840317 
z"/>
<path fill="#DEFBFC" opacity="1.000000" stroke="none" 
	d="
M19.805708,94.167587 
	C20.449417,95.410606 20.838539,96.544212 21.495209,98.457237 
	C20.049183,97.758667 19.345705,97.418816 18.347416,97.045090 
	C18.031559,96.260460 18.010511,95.509712 18.238838,94.379013 
	C18.659611,93.992828 18.831011,93.986572 19.002413,93.980316 
	C19.185316,94.006264 19.368219,94.032219 19.805708,94.167587 
z"/>
<path fill="#CEF7FA" opacity="1.000000" stroke="none" 
	d="
M108.475769,89.056671 
	C108.911682,90.345062 109.003174,91.720863 109.088120,93.509964 
	C106.026695,92.874626 106.480919,91.128281 108.475769,89.056671 
z"/>
<path fill="#D0FAF8" opacity="1.000000" stroke="none" 
	d="
M175.444733,105.760948 
	C175.157471,104.267426 175.128571,102.550468 175.079102,100.402893 
	C178.586304,101.443695 176.442596,103.571915 175.444733,105.760948 
z"/>
<path fill="#BEF2EE" opacity="1.000000" stroke="none" 
	d="
M74.497620,80.963715 
	C74.205978,79.248375 74.245415,77.480965 74.373993,75.276428 
	C74.463135,74.839310 74.740524,74.839157 74.872345,75.225876 
	C75.287743,76.388733 75.571312,77.164871 75.854889,77.941002 
	C75.512825,78.931213 75.170761,79.921425 74.497620,80.963715 
z"/>
<path fill="#D0FAF8" opacity="1.000000" stroke="none" 
	d="
M108.740402,100.101883 
	C109.054741,101.453880 109.022240,102.820999 108.904495,104.590034 
	C107.054520,103.508682 105.785835,101.982086 108.740402,100.101883 
z"/>
<path fill="#DAFAF8" opacity="1.000000" stroke="none" 
	d="
M108.480255,25.195189 
	C108.864494,26.375856 108.963417,27.745243 109.072311,29.526680 
	C105.778915,29.006365 106.810799,27.229448 108.480255,25.195189 
z"/>
<path fill="#DEFBFC" opacity="1.000000" stroke="none" 
	d="
M72.850311,94.901421 
	C71.209122,94.903488 69.407867,94.847664 67.364151,94.579887 
	C68.528587,94.305290 69.935486,94.242645 71.754524,94.298515 
	C72.312149,94.594841 72.486671,94.737007 72.850311,94.901421 
z"/>
<path fill="#4BB8B0" opacity="1.000000" stroke="none" 
	d="
M152.900955,41.081081 
	C152.128418,41.728771 151.369644,42.354118 150.261948,42.884766 
	C149.967453,41.988956 150.021896,41.187843 150.144241,39.989250 
	C150.212143,39.591766 150.636002,39.551918 151.017929,39.758728 
	C151.570740,40.015259 151.741608,40.064980 151.912491,40.114700 
	C151.912491,40.114700 151.996292,40.052326 152.019287,40.318237 
	C152.342484,40.755882 152.642670,40.927616 152.942856,41.099350 
	C152.942856,41.099350 152.914719,41.058739 152.900955,41.081081 
z"/>
<path fill="#DEFCFB" opacity="1.000000" stroke="none" 
	d="
M108.405243,63.051662 
	C108.782310,64.059013 108.843697,65.146851 108.810089,66.634583 
	C108.506577,65.733704 108.298065,64.432922 108.405243,63.051662 
z"/>
<path fill="#DEFBFC" opacity="1.000000" stroke="none" 
	d="
M18.748184,87.096771 
	C19.016178,88.129761 18.935173,89.182190 18.549202,90.632271 
	C18.244234,91.029930 17.857433,91.097549 17.857433,91.097549 
	C18.038015,89.770439 18.218599,88.443321 18.748184,87.096771 
z"/>
<path fill="#EDFEFD" opacity="1.000000" stroke="none" 
	d="
M24.123756,129.239868 
	C24.850410,129.913284 25.515450,130.962143 26.253771,132.319397 
	C26.327053,132.627792 26.159578,132.837341 25.826180,132.924530 
	C25.492779,133.011703 24.999367,133.001831 24.999367,133.001831 
	C24.686960,131.873001 24.374552,130.744156 24.123756,129.239868 
z"/>
<path fill="#EDFEFD" opacity="1.000000" stroke="none" 
	d="
M74.002563,123.624435 
	C71.766998,123.495544 71.368103,122.571983 73.676834,121.059799 
	C74.009727,121.760628 74.005585,122.506065 74.002563,123.624435 
z"/>
<path fill="#AFF2F0" opacity="1.000000" stroke="none" 
	d="
M129.371948,169.026337 
	C130.101120,168.349579 131.206940,167.700409 132.640900,167.005066 
	C131.895569,167.657227 130.822083,168.355576 129.371948,169.026337 
z"/>
<path fill="#D2F6F4" opacity="1.000000" stroke="none" 
	d="
M41.774605,42.859371 
	C42.000927,43.046711 41.997173,43.527088 41.994644,43.767349 
	C40.299500,43.672092 38.426281,43.436836 40.686287,41.046356 
	C41.185356,41.563602 41.366821,42.117817 41.774605,42.859371 
z"/>
<path fill="#D2F6F4" opacity="1.000000" stroke="none" 
	d="
M48.962349,34.575195 
	C49.034710,34.871700 48.997742,35.265285 48.988220,35.462128 
	C48.552383,35.785122 48.126068,35.911274 47.366829,36.056122 
	C47.304787,35.215984 47.575672,34.357155 47.846558,33.498325 
	C48.194370,33.758450 48.542179,34.018570 48.962349,34.575195 
z"/>
<path fill="#EDFEFD" opacity="1.000000" stroke="none" 
	d="
M75.311951,131.958191 
	C74.976471,131.242661 74.974876,130.483826 75.047638,129.351990 
	C75.296616,129.957626 75.471230,130.936234 75.311951,131.958191 
z"/>
<path fill="#AFF2F0" opacity="1.000000" stroke="none" 
	d="
M125.123283,170.791565 
	C125.933601,170.129990 127.129021,169.557922 128.662155,168.990906 
	C127.836044,169.624329 126.672211,170.252686 125.123283,170.791565 
z"/>
<path fill="#DEFCFB" opacity="1.000000" stroke="none" 
	d="
M170.036652,68.753998 
	C169.682846,68.047424 169.662872,67.413635 169.632095,66.459320 
	C170.298386,66.686844 170.975479,67.234894 171.652588,67.782936 
	C171.225235,68.130882 170.797867,68.478828 170.036652,68.753998 
z"/>
<path fill="#D4F9F8" opacity="1.000000" stroke="none" 
	d="
M160.141052,143.118195 
	C160.568497,142.784363 160.995926,142.450531 161.682037,142.023682 
	C161.478424,142.918472 161.016113,143.906281 160.186615,144.905945 
	C159.903687,144.525497 159.987930,144.133194 160.038849,143.372360 
	C160.005539,143.003815 160.141052,143.118195 160.141052,143.118195 
z"/>
<path fill="#C3F6F4" opacity="1.000000" stroke="none" 
	d="
M56.869469,29.186218 
	C57.164791,29.228382 57.212086,29.492989 57.158337,29.615444 
	C56.566830,29.893711 56.029076,30.049519 55.491318,30.205330 
	C55.852261,29.851572 56.213203,29.497812 56.869469,29.186218 
z"/>
<path fill="#AFF2F0" opacity="1.000000" stroke="none" 
	d="
M57.841579,163.773926 
	C57.980476,164.003601 57.951996,164.496902 57.878456,164.732483 
	C57.337444,164.680695 56.869980,164.393311 56.402512,164.105957 
	C56.835903,163.918732 57.269295,163.731491 57.841579,163.773926 
z"/>
<path fill="#D4F9F8" opacity="1.000000" stroke="none" 
	d="
M32.324959,143.042908 
	C32.962841,143.244583 33.494850,143.793701 34.084145,144.640350 
	C33.500648,144.422043 32.859867,143.906204 32.324959,143.042908 
z"/>
<path fill="#DEFCFB" opacity="1.000000" stroke="none" 
	d="
M161.680374,50.993080 
	C161.038864,50.784019 160.505966,50.229160 159.947815,49.371723 
	C160.544678,49.595192 161.166824,50.121239 161.680374,50.993080 
z"/>
<path fill="#4BB8B0" opacity="1.000000" stroke="none" 
	d="
M111.045746,42.424633 
	C110.666809,42.770584 110.221123,42.833366 109.434601,42.877800 
	C109.057983,42.421471 109.022194,41.983486 109.079300,41.228706 
	C109.774467,41.321762 110.376724,41.731613 111.045746,42.424633 
z"/>
<path fill="#DDFAF9" opacity="1.000000" stroke="none" 
	d="
M17.883705,91.459885 
	C17.857433,91.097549 18.244234,91.029930 18.439651,91.012985 
	C18.733086,91.741165 18.831102,92.486290 18.965765,93.605865 
	C18.831011,93.986572 18.659611,93.992828 18.230654,94.003815 
	C17.952055,93.279770 17.931015,92.550995 17.883705,91.459885 
z"/>
<path fill="#C0F3F1" opacity="1.000000" stroke="none" 
	d="
M75.900635,77.609993 
	C75.571312,77.164871 75.287743,76.388733 74.999962,75.280205 
	C75.312630,75.724869 75.629501,76.501923 75.900635,77.609993 
z"/>
<path fill="#C0F3F1" opacity="1.000000" stroke="none" 
	d="
M72.151512,73.012939 
	C72.521797,73.005112 72.892075,72.997284 73.536087,72.977814 
	C73.845085,73.166908 73.880363,73.367638 73.895966,73.873596 
	C73.154686,74.181664 72.433067,74.184509 71.478745,73.859207 
	C71.547874,73.358353 71.849693,73.185646 72.151512,73.012939 
z"/>
<path fill="#D5FDFC" opacity="1.000000" stroke="none" 
	d="
M73.548859,55.728382 
	C73.494026,56.119545 73.073730,56.529297 72.339081,56.970970 
	C71.692375,56.917595 71.422462,56.738316 71.113373,56.240654 
	C71.735634,55.926495 72.459518,55.836731 73.548859,55.728382 
z"/>
<path fill="#AFF2F0" opacity="1.000000" stroke="none" 
	d="
M60.315407,167.031418 
	C60.784412,166.895554 61.319702,167.080551 62.003952,167.514648 
	C61.562508,167.626587 60.972099,167.489441 60.315407,167.031418 
z"/>
<path fill="#AFF2F0" opacity="1.000000" stroke="none" 
	d="
M62.294228,168.084686 
	C62.750179,167.915863 63.332005,168.063400 64.121086,168.437729 
	C63.692257,168.576691 63.056175,168.488876 62.294228,168.084686 
z"/>
<path fill="#DFFAF9" opacity="1.000000" stroke="none" 
	d="
M24.459690,125.238068 
	C24.119417,125.080528 24.087172,124.867882 24.031834,124.333588 
	C24.008745,124.011955 24.500156,123.998940 24.745808,123.994171 
	C25.302267,124.085938 25.560520,124.260300 25.879578,124.719040 
	C25.584532,125.011383 25.176123,125.097168 24.459690,125.238068 
z"/>
<path fill="#C3F6F4" opacity="1.000000" stroke="none" 
	d="
M42.793037,39.441879 
	C42.626041,39.805786 42.243984,40.015347 41.526558,40.263176 
	C41.653446,39.963470 42.115707,39.625496 42.793037,39.441879 
z"/>
<path fill="#AFF2F0" opacity="1.000000" stroke="none" 
	d="
M59.165924,166.206085 
	C59.432606,165.912933 59.736210,166.016708 60.102650,166.487350 
	C59.895046,166.622940 59.574165,166.539215 59.165924,166.206085 
z"/>
<path fill="#F8FEFE" opacity="1.000000" stroke="none" 
	d="
M25.084400,133.167206 
	C24.999367,133.001831 25.492779,133.011703 25.738867,133.026337 
	C25.713114,133.138199 25.441275,133.235397 25.084400,133.167206 
z"/>
<path fill="#BEF2EE" opacity="1.000000" stroke="none" 
	d="
M24.747072,65.153030 
	C24.906256,65.345642 24.824326,65.693054 24.533300,66.215233 
	C24.384790,66.029274 24.445375,65.668556 24.747072,65.153030 
z"/>
<path fill="#D5FDFC" opacity="1.000000" stroke="none" 
	d="
M34.724960,48.058872 
	C34.943707,47.921501 34.974281,48.348110 34.981255,48.561531 
	C34.846588,48.865814 34.704948,48.956673 34.312370,49.074104 
	C34.209694,48.799198 34.357952,48.497723 34.724960,48.058872 
z"/>
<path fill="#DEFCFB" opacity="1.000000" stroke="none" 
	d="
M152.859421,40.848339 
	C152.642670,40.927616 152.342484,40.755882 151.967896,40.327526 
	C152.187653,40.246380 152.481827,40.421852 152.859421,40.848339 
z"/>
<path fill="#DEFCFB" opacity="1.000000" stroke="none" 
	d="
M151.903503,39.935326 
	C151.741608,40.064980 151.570740,40.015259 151.230804,39.758766 
	C151.339325,39.619984 151.616913,39.687969 151.903503,39.935326 
z"/>
<path fill="#C3F6F4" opacity="1.000000" stroke="none" 
	d="
M45.725563,37.055504 
	C45.928619,37.338493 45.762215,37.611725 45.212765,37.854359 
	C45.036095,37.575794 45.211555,37.316456 45.725563,37.055504 
z"/>
<path fill="#0EBAB4" opacity="1.000000" stroke="none" 
	d="
M160.062317,143.071899 
	C152.837051,143.430695 145.555695,143.950897 138.272858,143.972549 
	C106.303337,144.067566 74.333168,144.068192 42.363991,143.929016 
	C39.746769,143.917648 37.135250,142.597595 34.521084,141.885605 
	C34.627804,141.336502 34.734524,140.787384 34.841244,140.238266 
	C36.231812,140.148773 37.622345,139.981598 39.012943,139.981079 
	C77.476608,139.966827 115.940384,139.937302 154.403610,140.067200 
	C156.274872,140.073532 158.141312,141.503342 160.075531,142.694244 
	C160.141052,143.118195 160.005539,143.003815 160.062317,143.071899 
z"/>
<path fill="#DEFBFC" opacity="1.000000" stroke="none" 
	d="
M64.429657,94.242630 
	C55.898708,94.562721 46.919987,94.776886 37.473160,94.822510 
	C37.005047,94.653976 37.005192,94.333611 37.005192,94.333611 
	C45.997425,94.267975 54.989658,94.202339 64.429657,94.242630 
z"/>
<path fill="#DDFAF9" opacity="1.000000" stroke="none" 
	d="
M36.591736,94.231934 
	C37.005192,94.333611 37.005047,94.653976 37.004871,94.813812 
	C35.238461,94.900322 33.472225,94.826988 31.411591,94.538849 
	C32.804222,94.259460 34.491249,94.194855 36.591736,94.231934 
z"/>
<path fill="#FDFEFE" opacity="1.000000" stroke="none" 
	d="
M72.104614,72.590477 
	C71.849693,73.185646 71.547874,73.358353 71.128639,73.767075 
	C70.560654,74.040665 70.110085,74.078247 69.323425,74.062119 
	C68.094414,73.404427 67.195000,72.266068 66.309517,72.276794 
	C53.475677,72.432289 40.643707,72.741852 27.323965,73.016769 
	C27.966812,71.992188 29.082859,70.091003 30.229322,70.072479 
	C43.121887,69.864174 56.019726,69.893570 68.913971,70.044685 
	C69.970047,70.057060 71.010185,71.428215 72.104614,72.590477 
z"/>
<path fill="#DDFAF9" opacity="1.000000" stroke="none" 
	d="
M72.587143,99.456177 
	C59.591705,99.730301 46.303291,99.794632 32.564186,99.768135 
	C41.504887,99.450912 50.899593,99.307220 60.285011,98.931625 
	C62.274975,98.851982 64.231049,97.925583 66.054787,97.429558 
	C68.043259,98.008575 70.168709,98.627480 72.587143,99.456177 
z"/>
<path fill="#4BB8B0" opacity="1.000000" stroke="none" 
	d="
M109.722984,37.098751 
	C110.048317,36.706520 110.820824,35.914219 111.592690,35.914841 
	C122.977585,35.924046 134.362396,36.038624 146.098267,36.416752 
	C134.356155,36.826019 122.263008,36.946735 109.722984,37.098751 
z"/>
<path fill="#4BB8B0" opacity="1.000000" stroke="none" 
	d="
M147.672623,42.508648 
	C136.640152,42.823479 125.278038,42.892002 113.456985,42.856651 
	C117.377563,42.496521 121.755592,42.061321 126.136963,42.024788 
	C133.204483,41.965858 140.274200,42.169571 147.672623,42.508648 
z"/>
<path fill="#10B8B4" opacity="1.000000" stroke="none" 
	d="
M23.045559,106.355591 
	C22.513266,106.754883 22.095215,106.810425 21.364250,106.805756 
	C19.322365,102.821754 20.141903,100.902367 24.888466,100.954994 
	C38.883278,101.110184 52.880943,101.004738 66.877495,101.012672 
	C67.874634,101.013237 69.122437,100.754181 69.807564,101.242195 
	C70.735481,101.903122 71.231903,103.169861 71.913429,104.176727 
	C70.916847,104.764954 69.911217,105.877434 68.925079,105.860413 
	C58.965652,105.688507 49.010677,105.170090 39.051773,105.092422 
	C33.757160,105.051132 28.457293,105.683533 23.045559,106.355591 
z"/>
<path fill="#F8FEFE" opacity="1.000000" stroke="none" 
	d="
M33.483025,136.972229 
	C34.147499,135.977844 35.257633,134.166550 36.413719,134.136734 
	C45.533203,133.901474 54.662750,133.935165 63.785275,134.101410 
	C64.857948,134.120956 65.906860,135.444504 66.981567,136.578445 
	C55.980885,136.989105 44.965427,136.984894 33.483025,136.972229 
z"/>
<path fill="#DFFAF9" opacity="1.000000" stroke="none" 
	d="
M31.074492,125.681656 
	C31.074492,125.681656 31.079748,125.308044 31.054440,125.122787 
	C33.081295,124.627251 35.133762,124.050331 37.185566,124.052681 
	C46.246708,124.063057 55.307655,124.240189 64.663773,124.809219 
	C64.958878,125.261497 64.995796,125.607368 64.533272,125.527176 
	C53.071995,125.525200 42.073242,125.603432 31.074492,125.681656 
z"/>
<path fill="#68CDC5" opacity="1.000000" stroke="none" 
	d="
M66.679237,124.959785 
	C67.017204,124.914032 67.059448,125.282516 66.958534,125.707428 
	C66.237015,125.957344 65.616402,125.782356 64.995796,125.607368 
	C64.995796,125.607368 64.958878,125.261497 64.971054,125.087189 
	C65.435913,124.943764 65.888596,124.974655 66.679237,124.959785 
z"/>
<path fill="#17B6B2" opacity="1.000000" stroke="none" 
	d="
M64.533272,125.527176 
	C65.616402,125.782356 66.237015,125.957344 66.966507,125.892708 
	C68.424988,125.661736 69.774582,125.670395 71.528946,125.670654 
	C71.985054,127.724823 72.036400,129.787399 71.959991,132.175476 
	C70.538704,132.542786 69.245171,132.584610 67.468887,132.333008 
	C66.266014,132.209473 65.545876,132.379349 64.825745,132.549225 
	C54.577488,132.590012 44.329235,132.630783 33.540234,132.373047 
	C32.271969,132.216370 31.544449,132.358185 30.816929,132.500000 
	C30.152157,132.544006 29.487383,132.587997 28.500238,132.540771 
	C27.487303,130.986511 26.796740,129.523514 25.916098,127.657806 
	C27.678148,127.144012 29.152960,126.713974 30.851131,125.982803 
	C42.073242,125.603432 53.071995,125.525200 64.533272,125.527176 
z"/>
<path fill="#10B8B4" opacity="1.000000" stroke="none" 
	d="
M70.276245,42.466461 
	C69.593002,42.741425 69.156357,42.771980 68.397148,42.738514 
	C66.507362,42.125736 64.954666,41.158745 63.370296,41.103714 
	C57.782574,40.909637 52.183990,41.028221 46.589527,41.028221 
	C46.401470,40.475834 46.213417,39.923447 46.025364,39.371063 
	C47.537426,38.590256 49.022648,37.204166 50.566299,37.135715 
	C56.553173,36.870239 62.570389,36.797203 68.552727,37.107418 
	C72.091805,37.290936 73.543213,39.099270 70.276245,42.466461 
z"/>
<path fill="#68CDC5" opacity="1.000000" stroke="none" 
	d="
M65.215248,132.673691 
	C65.545876,132.379349 66.266014,132.209473 67.085510,132.263794 
	C66.658165,132.591385 66.131454,132.694763 65.215248,132.673691 
z"/>
<path fill="#68CDC5" opacity="1.000000" stroke="none" 
	d="
M31.198826,132.649094 
	C31.544449,132.358185 32.271969,132.216370 33.088760,132.307739 
	C32.645599,132.626678 32.113163,132.712433 31.198826,132.649094 
z"/>
</svg>